<mxfile host="app.diagrams.net" modified="2021-04-25T03:13:49.223Z" agent="5.0 (Macintosh; Intel Mac OS X 10_15_7) AppleWebKit/537.36 (KHTML, like Gecko) Chrome/90.0.4430.85 Safari/537.36" etag="Q-0C614D2FhbRJxXSnEk" version="14.6.6" type="github">
  <diagram name="Page-1" id="9c096ad6-e400-ecc8-3e38-643d2caac077">
    <mxGraphModel dx="1351" dy="2116" grid="1" gridSize="10" guides="1" tooltips="1" connect="1" arrows="1" fold="1" page="1" pageScale="1.5" pageWidth="1169" pageHeight="826" background="#ffffff" math="0" shadow="0">
      <root>
        <mxCell id="0" style=";html=1;" />
        <mxCell id="1" style=";html=1;" parent="0" />
        <mxCell id="jpYt6es3VZ6jKKZ6gmWX-1" value="MyFitnessPal&amp;nbsp;&lt;br&gt;登入介面" style="rounded=1;whiteSpace=wrap;html=1;" vertex="1" parent="1">
          <mxGeometry x="260" y="390" width="120" height="60" as="geometry" />
        </mxCell>
        <mxCell id="jpYt6es3VZ6jKKZ6gmWX-4" value="" style="line;strokeWidth=4;html=1;perimeter=backbonePerimeter;points=[];outlineConnect=0;" vertex="1" parent="1">
          <mxGeometry x="490" y="361" width="110" height="10" as="geometry" />
        </mxCell>
        <mxCell id="jpYt6es3VZ6jKKZ6gmWX-7" value="" style="line;strokeWidth=4;html=1;perimeter=backbonePerimeter;points=[];outlineConnect=0;" vertex="1" parent="1">
          <mxGeometry x="480" y="915" width="110" height="10" as="geometry" />
        </mxCell>
        <mxCell id="jpYt6es3VZ6jKKZ6gmWX-8" value="" style="line;strokeWidth=4;html=1;perimeter=backbonePerimeter;points=[];outlineConnect=0;" vertex="1" parent="1">
          <mxGeometry x="480" y="1205" width="110" height="10" as="geometry" />
        </mxCell>
        <mxCell id="jpYt6es3VZ6jKKZ6gmWX-9" value="" style="line;strokeWidth=4;html=1;perimeter=backbonePerimeter;points=[];outlineConnect=0;flipH=0;flipV=1;" vertex="1" parent="1">
          <mxGeometry x="490" y="2215" width="110" height="10" as="geometry" />
        </mxCell>
        <mxCell id="jpYt6es3VZ6jKKZ6gmWX-10" value="" style="line;strokeWidth=4;html=1;perimeter=backbonePerimeter;points=[];outlineConnect=0;" vertex="1" parent="1">
          <mxGeometry x="380" y="300" width="110" height="240" as="geometry" />
        </mxCell>
        <mxCell id="jpYt6es3VZ6jKKZ6gmWX-12" value="主頁" style="rounded=1;whiteSpace=wrap;html=1;" vertex="1" parent="1">
          <mxGeometry x="590" y="-120" width="120" height="60" as="geometry" />
        </mxCell>
        <mxCell id="jpYt6es3VZ6jKKZ6gmWX-13" value="進展" style="rounded=1;whiteSpace=wrap;html=1;" vertex="1" parent="1">
          <mxGeometry x="590" y="1179" width="120" height="60" as="geometry" />
        </mxCell>
        <mxCell id="jpYt6es3VZ6jKKZ6gmWX-14" value="新增" style="rounded=1;whiteSpace=wrap;html=1;" vertex="1" parent="1">
          <mxGeometry x="590" y="890" width="120" height="60" as="geometry" />
        </mxCell>
        <mxCell id="jpYt6es3VZ6jKKZ6gmWX-15" value="日記" style="rounded=1;whiteSpace=wrap;html=1;" vertex="1" parent="1">
          <mxGeometry x="600" y="340" width="120" height="60" as="geometry" />
        </mxCell>
        <mxCell id="jpYt6es3VZ6jKKZ6gmWX-16" value="" style="line;strokeWidth=4;html=1;perimeter=backbonePerimeter;points=[];outlineConnect=0;" vertex="1" parent="1">
          <mxGeometry x="480" y="-95" width="110" height="10" as="geometry" />
        </mxCell>
        <mxCell id="jpYt6es3VZ6jKKZ6gmWX-17" value="更多" style="rounded=1;whiteSpace=wrap;html=1;flipH=1;flipV=0;" vertex="1" parent="1">
          <mxGeometry x="600" y="2190" width="120" height="60" as="geometry" />
        </mxCell>
        <mxCell id="jpYt6es3VZ6jKKZ6gmWX-20" value="" style="line;strokeWidth=4;html=1;perimeter=backbonePerimeter;points=[];outlineConnect=0;" vertex="1" parent="1">
          <mxGeometry x="710" y="-95" width="100" height="10" as="geometry" />
        </mxCell>
        <mxCell id="jpYt6es3VZ6jKKZ6gmWX-21" value="" style="line;strokeWidth=4;direction=south;html=1;perimeter=backbonePerimeter;points=[];outlineConnect=0;" vertex="1" parent="1">
          <mxGeometry x="810" y="-165" width="10" height="160" as="geometry" />
        </mxCell>
        <mxCell id="jpYt6es3VZ6jKKZ6gmWX-22" value="" style="line;strokeWidth=4;html=1;perimeter=backbonePerimeter;points=[];outlineConnect=0;" vertex="1" parent="1">
          <mxGeometry x="810" y="-165" width="100" height="10" as="geometry" />
        </mxCell>
        <mxCell id="jpYt6es3VZ6jKKZ6gmWX-23" value="" style="line;strokeWidth=4;html=1;perimeter=backbonePerimeter;points=[];outlineConnect=0;" vertex="1" parent="1">
          <mxGeometry x="810" y="-15" width="100" height="10" as="geometry" />
        </mxCell>
        <mxCell id="jpYt6es3VZ6jKKZ6gmWX-24" value="" style="line;strokeWidth=4;html=1;perimeter=backbonePerimeter;points=[];outlineConnect=0;" vertex="1" parent="1">
          <mxGeometry x="810" y="-95" width="100" height="10" as="geometry" />
        </mxCell>
        <mxCell id="jpYt6es3VZ6jKKZ6gmWX-25" value="通知" style="rounded=1;whiteSpace=wrap;html=1;" vertex="1" parent="1">
          <mxGeometry x="910" y="-40" width="120" height="60" as="geometry" />
        </mxCell>
        <mxCell id="jpYt6es3VZ6jKKZ6gmWX-26" value="貼文" style="rounded=1;whiteSpace=wrap;html=1;" vertex="1" parent="1">
          <mxGeometry x="910" y="-115" width="120" height="60" as="geometry" />
        </mxCell>
        <mxCell id="jpYt6es3VZ6jKKZ6gmWX-27" value="還剩卡路里" style="rounded=1;whiteSpace=wrap;html=1;" vertex="1" parent="1">
          <mxGeometry x="910" y="-190" width="120" height="60" as="geometry" />
        </mxCell>
        <mxCell id="jpYt6es3VZ6jKKZ6gmWX-28" value="" style="line;strokeWidth=4;html=1;perimeter=backbonePerimeter;points=[];outlineConnect=0;" vertex="1" parent="1">
          <mxGeometry x="1130" y="-60" width="100" height="10" as="geometry" />
        </mxCell>
        <mxCell id="jpYt6es3VZ6jKKZ6gmWX-29" value="" style="line;strokeWidth=4;html=1;perimeter=backbonePerimeter;points=[];outlineConnect=0;" vertex="1" parent="1">
          <mxGeometry x="1030" y="-95" width="100" height="10" as="geometry" />
        </mxCell>
        <mxCell id="jpYt6es3VZ6jKKZ6gmWX-30" value="" style="line;strokeWidth=4;html=1;perimeter=backbonePerimeter;points=[];outlineConnect=0;" vertex="1" parent="1">
          <mxGeometry x="1130" y="-120" width="100" height="10" as="geometry" />
        </mxCell>
        <mxCell id="jpYt6es3VZ6jKKZ6gmWX-31" value="" style="line;strokeWidth=4;direction=south;html=1;perimeter=backbonePerimeter;points=[];outlineConnect=0;" vertex="1" parent="1">
          <mxGeometry x="1124" y="-115" width="10" height="60" as="geometry" />
        </mxCell>
        <mxCell id="jpYt6es3VZ6jKKZ6gmWX-32" value="留言" style="rounded=1;whiteSpace=wrap;html=1;" vertex="1" parent="1">
          <mxGeometry x="1230" y="-75" width="120" height="60" as="geometry" />
        </mxCell>
        <mxCell id="jpYt6es3VZ6jKKZ6gmWX-33" value="按讚" style="rounded=1;whiteSpace=wrap;html=1;" vertex="1" parent="1">
          <mxGeometry x="1230" y="-155" width="120" height="60" as="geometry" />
        </mxCell>
        <mxCell id="jpYt6es3VZ6jKKZ6gmWX-34" value="" style="line;strokeWidth=4;html=1;perimeter=backbonePerimeter;points=[];outlineConnect=0;" vertex="1" parent="1">
          <mxGeometry x="720" y="360" width="100" height="10" as="geometry" />
        </mxCell>
        <mxCell id="jpYt6es3VZ6jKKZ6gmWX-36" value="" style="line;strokeWidth=4;direction=south;html=1;perimeter=backbonePerimeter;points=[];outlineConnect=0;" vertex="1" parent="1">
          <mxGeometry x="810" y="60" width="10" height="630" as="geometry" />
        </mxCell>
        <mxCell id="jpYt6es3VZ6jKKZ6gmWX-37" value="" style="line;strokeWidth=4;html=1;perimeter=backbonePerimeter;points=[];outlineConnect=0;" vertex="1" parent="1">
          <mxGeometry x="810" y="55" width="100" height="10" as="geometry" />
        </mxCell>
        <mxCell id="jpYt6es3VZ6jKKZ6gmWX-38" value="" style="line;strokeWidth=4;html=1;perimeter=backbonePerimeter;points=[];outlineConnect=0;" vertex="1" parent="1">
          <mxGeometry x="810" y="335" width="100" height="10" as="geometry" />
        </mxCell>
        <mxCell id="jpYt6es3VZ6jKKZ6gmWX-39" value="" style="line;strokeWidth=4;html=1;perimeter=backbonePerimeter;points=[];outlineConnect=0;" vertex="1" parent="1">
          <mxGeometry x="810" y="400" width="100" height="10" as="geometry" />
        </mxCell>
        <mxCell id="jpYt6es3VZ6jKKZ6gmWX-40" value="" style="line;strokeWidth=4;html=1;perimeter=backbonePerimeter;points=[];outlineConnect=0;" vertex="1" parent="1">
          <mxGeometry x="810" y="130" width="100" height="10" as="geometry" />
        </mxCell>
        <mxCell id="jpYt6es3VZ6jKKZ6gmWX-41" value="" style="line;strokeWidth=4;html=1;perimeter=backbonePerimeter;points=[];outlineConnect=0;" vertex="1" parent="1">
          <mxGeometry x="810" y="195" width="100" height="10" as="geometry" />
        </mxCell>
        <mxCell id="jpYt6es3VZ6jKKZ6gmWX-42" value="" style="line;strokeWidth=4;html=1;perimeter=backbonePerimeter;points=[];outlineConnect=0;" vertex="1" parent="1">
          <mxGeometry x="810" y="270" width="100" height="10" as="geometry" />
        </mxCell>
        <mxCell id="jpYt6es3VZ6jKKZ6gmWX-44" value="" style="line;strokeWidth=4;direction=south;html=1;perimeter=backbonePerimeter;points=[];outlineConnect=0;" vertex="1" parent="1">
          <mxGeometry x="480" y="-95" width="10" height="2315" as="geometry" />
        </mxCell>
        <mxCell id="jpYt6es3VZ6jKKZ6gmWX-45" value="還剩卡路里" style="rounded=1;whiteSpace=wrap;html=1;" vertex="1" parent="1">
          <mxGeometry x="910" y="30" width="120" height="60" as="geometry" />
        </mxCell>
        <mxCell id="jpYt6es3VZ6jKKZ6gmWX-46" value="早餐" style="rounded=1;whiteSpace=wrap;html=1;" vertex="1" parent="1">
          <mxGeometry x="910" y="100" width="120" height="60" as="geometry" />
        </mxCell>
        <mxCell id="jpYt6es3VZ6jKKZ6gmWX-47" value="午餐" style="rounded=1;whiteSpace=wrap;html=1;" vertex="1" parent="1">
          <mxGeometry x="910" y="170" width="120" height="60" as="geometry" />
        </mxCell>
        <mxCell id="jpYt6es3VZ6jKKZ6gmWX-48" value="晚餐" style="rounded=1;whiteSpace=wrap;html=1;" vertex="1" parent="1">
          <mxGeometry x="910" y="241" width="120" height="60" as="geometry" />
        </mxCell>
        <mxCell id="jpYt6es3VZ6jKKZ6gmWX-49" value="點心" style="rounded=1;whiteSpace=wrap;html=1;" vertex="1" parent="1">
          <mxGeometry x="910" y="310" width="120" height="60" as="geometry" />
        </mxCell>
        <mxCell id="jpYt6es3VZ6jKKZ6gmWX-50" value="運動" style="rounded=1;whiteSpace=wrap;html=1;" vertex="1" parent="1">
          <mxGeometry x="910" y="380" width="120" height="60" as="geometry" />
        </mxCell>
        <mxCell id="jpYt6es3VZ6jKKZ6gmWX-51" value="" style="line;strokeWidth=4;html=1;perimeter=backbonePerimeter;points=[];outlineConnect=0;" vertex="1" parent="1">
          <mxGeometry x="810" y="471" width="100" height="10" as="geometry" />
        </mxCell>
        <mxCell id="jpYt6es3VZ6jKKZ6gmWX-52" value="水" style="rounded=1;whiteSpace=wrap;html=1;" vertex="1" parent="1">
          <mxGeometry x="910" y="451" width="120" height="60" as="geometry" />
        </mxCell>
        <mxCell id="jpYt6es3VZ6jKKZ6gmWX-53" value="" style="line;strokeWidth=4;html=1;perimeter=backbonePerimeter;points=[];outlineConnect=0;" vertex="1" parent="1">
          <mxGeometry x="810" y="544" width="100" height="10" as="geometry" />
        </mxCell>
        <mxCell id="jpYt6es3VZ6jKKZ6gmWX-54" value="" style="line;strokeWidth=4;html=1;perimeter=backbonePerimeter;points=[];outlineConnect=0;" vertex="1" parent="1">
          <mxGeometry x="810" y="609" width="100" height="10" as="geometry" />
        </mxCell>
        <mxCell id="jpYt6es3VZ6jKKZ6gmWX-55" value="完成日記" style="rounded=1;whiteSpace=wrap;html=1;" vertex="1" parent="1">
          <mxGeometry x="910" y="519" width="120" height="60" as="geometry" />
        </mxCell>
        <mxCell id="jpYt6es3VZ6jKKZ6gmWX-56" value="營養" style="rounded=1;whiteSpace=wrap;html=1;" vertex="1" parent="1">
          <mxGeometry x="910" y="589" width="120" height="60" as="geometry" />
        </mxCell>
        <mxCell id="jpYt6es3VZ6jKKZ6gmWX-57" value="" style="line;strokeWidth=4;html=1;perimeter=backbonePerimeter;points=[];outlineConnect=0;" vertex="1" parent="1">
          <mxGeometry x="810" y="680" width="100" height="10" as="geometry" />
        </mxCell>
        <mxCell id="jpYt6es3VZ6jKKZ6gmWX-58" value="註記" style="rounded=1;whiteSpace=wrap;html=1;" vertex="1" parent="1">
          <mxGeometry x="910" y="660" width="120" height="60" as="geometry" />
        </mxCell>
        <mxCell id="jpYt6es3VZ6jKKZ6gmWX-78" value="" style="line;strokeWidth=4;html=1;perimeter=backbonePerimeter;points=[];outlineConnect=0;direction=east;" vertex="1" parent="1">
          <mxGeometry x="1030" y="334" width="100" height="10" as="geometry" />
        </mxCell>
        <mxCell id="jpYt6es3VZ6jKKZ6gmWX-79" value="" style="line;strokeWidth=4;html=1;perimeter=backbonePerimeter;points=[];outlineConnect=0;direction=east;" vertex="1" parent="1">
          <mxGeometry x="1030" y="129" width="100" height="10" as="geometry" />
        </mxCell>
        <mxCell id="jpYt6es3VZ6jKKZ6gmWX-80" value="" style="line;strokeWidth=4;html=1;perimeter=backbonePerimeter;points=[];outlineConnect=0;direction=east;" vertex="1" parent="1">
          <mxGeometry x="1030" y="194" width="100" height="10" as="geometry" />
        </mxCell>
        <mxCell id="jpYt6es3VZ6jKKZ6gmWX-81" value="" style="line;strokeWidth=4;html=1;perimeter=backbonePerimeter;points=[];outlineConnect=0;direction=east;" vertex="1" parent="1">
          <mxGeometry x="1030" y="269" width="100" height="10" as="geometry" />
        </mxCell>
        <mxCell id="jpYt6es3VZ6jKKZ6gmWX-87" value="" style="line;strokeWidth=4;direction=south;html=1;perimeter=backbonePerimeter;points=[];outlineConnect=0;" vertex="1" parent="1">
          <mxGeometry x="1124" y="130" width="10" height="210" as="geometry" />
        </mxCell>
        <mxCell id="jpYt6es3VZ6jKKZ6gmWX-88" value="" style="line;strokeWidth=4;html=1;perimeter=backbonePerimeter;points=[];outlineConnect=0;direction=east;" vertex="1" parent="1">
          <mxGeometry x="1130" y="231" width="100" height="10" as="geometry" />
        </mxCell>
        <mxCell id="jpYt6es3VZ6jKKZ6gmWX-89" value="加入食品" style="rounded=1;whiteSpace=wrap;html=1;" vertex="1" parent="1">
          <mxGeometry x="1220" y="206" width="120" height="60" as="geometry" />
        </mxCell>
        <mxCell id="jpYt6es3VZ6jKKZ6gmWX-96" value="" style="line;strokeWidth=4;html=1;perimeter=backbonePerimeter;points=[];outlineConnect=0;direction=east;" vertex="1" parent="1">
          <mxGeometry x="1340" y="231" width="100" height="10" as="geometry" />
        </mxCell>
        <mxCell id="jpYt6es3VZ6jKKZ6gmWX-97" value="" style="line;strokeWidth=4;html=1;perimeter=backbonePerimeter;points=[];outlineConnect=0;" vertex="1" parent="1">
          <mxGeometry x="1440" y="90" width="100" height="10" as="geometry" />
        </mxCell>
        <mxCell id="jpYt6es3VZ6jKKZ6gmWX-98" value="" style="line;strokeWidth=4;html=1;perimeter=backbonePerimeter;points=[];outlineConnect=0;" vertex="1" parent="1">
          <mxGeometry x="1440" y="370" width="100" height="10" as="geometry" />
        </mxCell>
        <mxCell id="jpYt6es3VZ6jKKZ6gmWX-99" value="" style="line;strokeWidth=4;html=1;perimeter=backbonePerimeter;points=[];outlineConnect=0;" vertex="1" parent="1">
          <mxGeometry x="1440" y="165" width="100" height="10" as="geometry" />
        </mxCell>
        <mxCell id="jpYt6es3VZ6jKKZ6gmWX-100" value="" style="line;strokeWidth=4;html=1;perimeter=backbonePerimeter;points=[];outlineConnect=0;" vertex="1" parent="1">
          <mxGeometry x="1440" y="230" width="100" height="10" as="geometry" />
        </mxCell>
        <mxCell id="jpYt6es3VZ6jKKZ6gmWX-101" value="" style="line;strokeWidth=4;html=1;perimeter=backbonePerimeter;points=[];outlineConnect=0;" vertex="1" parent="1">
          <mxGeometry x="1440" y="305" width="100" height="10" as="geometry" />
        </mxCell>
        <mxCell id="jpYt6es3VZ6jKKZ6gmWX-102" value="搜尋食品" style="rounded=1;whiteSpace=wrap;html=1;" vertex="1" parent="1">
          <mxGeometry x="1540" y="65" width="120" height="60" as="geometry" />
        </mxCell>
        <mxCell id="jpYt6es3VZ6jKKZ6gmWX-103" value="全部" style="rounded=1;whiteSpace=wrap;html=1;" vertex="1" parent="1">
          <mxGeometry x="1540" y="135" width="120" height="60" as="geometry" />
        </mxCell>
        <mxCell id="jpYt6es3VZ6jKKZ6gmWX-104" value="食譜" style="rounded=1;whiteSpace=wrap;html=1;" vertex="1" parent="1">
          <mxGeometry x="1540" y="205" width="120" height="60" as="geometry" />
        </mxCell>
        <mxCell id="jpYt6es3VZ6jKKZ6gmWX-105" value="餐飲" style="rounded=1;whiteSpace=wrap;html=1;" vertex="1" parent="1">
          <mxGeometry x="1540" y="276" width="120" height="60" as="geometry" />
        </mxCell>
        <mxCell id="jpYt6es3VZ6jKKZ6gmWX-106" value="我的食品" style="rounded=1;whiteSpace=wrap;html=1;" vertex="1" parent="1">
          <mxGeometry x="1540" y="350" width="120" height="60" as="geometry" />
        </mxCell>
        <mxCell id="jpYt6es3VZ6jKKZ6gmWX-107" value="" style="line;strokeWidth=4;direction=south;html=1;perimeter=backbonePerimeter;points=[];outlineConnect=0;" vertex="1" parent="1">
          <mxGeometry x="1440" y="91" width="10" height="289" as="geometry" />
        </mxCell>
        <mxCell id="jpYt6es3VZ6jKKZ6gmWX-110" value="" style="line;strokeWidth=4;html=1;perimeter=backbonePerimeter;points=[];outlineConnect=0;direction=east;" vertex="1" parent="1">
          <mxGeometry x="1030" y="405" width="100" height="10" as="geometry" />
        </mxCell>
        <mxCell id="jpYt6es3VZ6jKKZ6gmWX-111" value="新增運動" style="rounded=1;whiteSpace=wrap;html=1;" vertex="1" parent="1">
          <mxGeometry x="1120" y="380" width="120" height="60" as="geometry" />
        </mxCell>
        <mxCell id="jpYt6es3VZ6jKKZ6gmWX-112" value="" style="line;strokeWidth=4;html=1;perimeter=backbonePerimeter;points=[];outlineConnect=0;direction=east;" vertex="1" parent="1">
          <mxGeometry x="1030" y="475" width="100" height="10" as="geometry" />
        </mxCell>
        <mxCell id="jpYt6es3VZ6jKKZ6gmWX-113" value="加入水" style="rounded=1;whiteSpace=wrap;html=1;" vertex="1" parent="1">
          <mxGeometry x="1120" y="450" width="120" height="60" as="geometry" />
        </mxCell>
        <mxCell id="jpYt6es3VZ6jKKZ6gmWX-114" value="" style="line;strokeWidth=4;html=1;perimeter=backbonePerimeter;points=[];outlineConnect=0;" vertex="1" parent="1">
          <mxGeometry x="1130" y="614" width="100" height="10" as="geometry" />
        </mxCell>
        <mxCell id="jpYt6es3VZ6jKKZ6gmWX-115" value="" style="line;strokeWidth=4;html=1;perimeter=backbonePerimeter;points=[];outlineConnect=0;" vertex="1" parent="1">
          <mxGeometry x="1030" y="614" width="100" height="10" as="geometry" />
        </mxCell>
        <mxCell id="jpYt6es3VZ6jKKZ6gmWX-116" value="" style="line;strokeWidth=4;html=1;perimeter=backbonePerimeter;points=[];outlineConnect=0;" vertex="1" parent="1">
          <mxGeometry x="1130" y="554" width="100" height="10" as="geometry" />
        </mxCell>
        <mxCell id="jpYt6es3VZ6jKKZ6gmWX-117" value="" style="line;strokeWidth=4;direction=south;html=1;perimeter=backbonePerimeter;points=[];outlineConnect=0;" vertex="1" parent="1">
          <mxGeometry x="1124" y="556" width="10" height="136" as="geometry" />
        </mxCell>
        <mxCell id="jpYt6es3VZ6jKKZ6gmWX-118" value="營養素" style="rounded=1;whiteSpace=wrap;html=1;" vertex="1" parent="1">
          <mxGeometry x="1230" y="592" width="120" height="60" as="geometry" />
        </mxCell>
        <mxCell id="jpYt6es3VZ6jKKZ6gmWX-119" value="卡路里" style="rounded=1;whiteSpace=wrap;html=1;" vertex="1" parent="1">
          <mxGeometry x="1230" y="519" width="120" height="60" as="geometry" />
        </mxCell>
        <mxCell id="jpYt6es3VZ6jKKZ6gmWX-120" value="" style="line;strokeWidth=4;html=1;perimeter=backbonePerimeter;points=[];outlineConnect=0;" vertex="1" parent="1">
          <mxGeometry x="1130" y="682" width="100" height="10" as="geometry" />
        </mxCell>
        <mxCell id="jpYt6es3VZ6jKKZ6gmWX-121" value="主要營養素" style="rounded=1;whiteSpace=wrap;html=1;" vertex="1" parent="1">
          <mxGeometry x="1230" y="660" width="120" height="60" as="geometry" />
        </mxCell>
        <mxCell id="jpYt6es3VZ6jKKZ6gmWX-122" value="" style="line;strokeWidth=4;html=1;perimeter=backbonePerimeter;points=[];outlineConnect=0;direction=east;" vertex="1" parent="1">
          <mxGeometry x="710" y="911" width="100" height="10" as="geometry" />
        </mxCell>
        <mxCell id="jpYt6es3VZ6jKKZ6gmWX-123" value="" style="line;strokeWidth=4;html=1;perimeter=backbonePerimeter;points=[];outlineConnect=0;" vertex="1" parent="1">
          <mxGeometry x="810" y="770" width="100" height="10" as="geometry" />
        </mxCell>
        <mxCell id="jpYt6es3VZ6jKKZ6gmWX-124" value="" style="line;strokeWidth=4;html=1;perimeter=backbonePerimeter;points=[];outlineConnect=0;" vertex="1" parent="1">
          <mxGeometry x="810" y="1050" width="100" height="10" as="geometry" />
        </mxCell>
        <mxCell id="jpYt6es3VZ6jKKZ6gmWX-125" value="" style="line;strokeWidth=4;html=1;perimeter=backbonePerimeter;points=[];outlineConnect=0;" vertex="1" parent="1">
          <mxGeometry x="810" y="845" width="100" height="10" as="geometry" />
        </mxCell>
        <mxCell id="jpYt6es3VZ6jKKZ6gmWX-126" value="" style="line;strokeWidth=4;html=1;perimeter=backbonePerimeter;points=[];outlineConnect=0;" vertex="1" parent="1">
          <mxGeometry x="810" y="910" width="100" height="10" as="geometry" />
        </mxCell>
        <mxCell id="jpYt6es3VZ6jKKZ6gmWX-127" value="" style="line;strokeWidth=4;html=1;perimeter=backbonePerimeter;points=[];outlineConnect=0;" vertex="1" parent="1">
          <mxGeometry x="810" y="985" width="100" height="10" as="geometry" />
        </mxCell>
        <mxCell id="jpYt6es3VZ6jKKZ6gmWX-128" value="體重" style="rounded=1;whiteSpace=wrap;html=1;" vertex="1" parent="1">
          <mxGeometry x="910" y="745" width="120" height="60" as="geometry" />
        </mxCell>
        <mxCell id="jpYt6es3VZ6jKKZ6gmWX-129" value="水" style="rounded=1;whiteSpace=wrap;html=1;" vertex="1" parent="1">
          <mxGeometry x="910" y="815" width="120" height="60" as="geometry" />
        </mxCell>
        <mxCell id="jpYt6es3VZ6jKKZ6gmWX-130" value="狀況" style="rounded=1;whiteSpace=wrap;html=1;" vertex="1" parent="1">
          <mxGeometry x="910" y="885" width="120" height="60" as="geometry" />
        </mxCell>
        <mxCell id="jpYt6es3VZ6jKKZ6gmWX-131" value="食品" style="rounded=1;whiteSpace=wrap;html=1;" vertex="1" parent="1">
          <mxGeometry x="910" y="956" width="120" height="60" as="geometry" />
        </mxCell>
        <mxCell id="jpYt6es3VZ6jKKZ6gmWX-132" value="運動" style="rounded=1;whiteSpace=wrap;html=1;" vertex="1" parent="1">
          <mxGeometry x="910" y="1030" width="120" height="60" as="geometry" />
        </mxCell>
        <mxCell id="jpYt6es3VZ6jKKZ6gmWX-133" value="" style="line;strokeWidth=4;direction=south;html=1;perimeter=backbonePerimeter;points=[];outlineConnect=0;" vertex="1" parent="1">
          <mxGeometry x="810" y="771" width="10" height="289" as="geometry" />
        </mxCell>
        <mxCell id="jpYt6es3VZ6jKKZ6gmWX-134" value="" style="line;strokeWidth=4;html=1;perimeter=backbonePerimeter;points=[];outlineConnect=0;direction=east;" vertex="1" parent="1">
          <mxGeometry x="710" y="1205" width="100" height="10" as="geometry" />
        </mxCell>
        <mxCell id="jpYt6es3VZ6jKKZ6gmWX-135" value="" style="line;strokeWidth=4;html=1;perimeter=backbonePerimeter;points=[];outlineConnect=0;" vertex="1" parent="1">
          <mxGeometry x="810" y="1130" width="100" height="10" as="geometry" />
        </mxCell>
        <mxCell id="jpYt6es3VZ6jKKZ6gmWX-137" value="" style="line;strokeWidth=4;html=1;perimeter=backbonePerimeter;points=[];outlineConnect=0;" vertex="1" parent="1">
          <mxGeometry x="814" y="1610" width="100" height="10" as="geometry" />
        </mxCell>
        <mxCell id="jpYt6es3VZ6jKKZ6gmWX-138" value="" style="line;strokeWidth=4;html=1;perimeter=backbonePerimeter;points=[];outlineConnect=0;" vertex="1" parent="1">
          <mxGeometry x="810" y="1965" width="100" height="10" as="geometry" />
        </mxCell>
        <mxCell id="jpYt6es3VZ6jKKZ6gmWX-140" value="選擇測量單位" style="rounded=1;whiteSpace=wrap;html=1;" vertex="1" parent="1">
          <mxGeometry x="910" y="1105" width="120" height="60" as="geometry" />
        </mxCell>
        <mxCell id="jpYt6es3VZ6jKKZ6gmWX-141" value="選取日期範圍" style="rounded=1;whiteSpace=wrap;html=1;" vertex="1" parent="1">
          <mxGeometry x="914" y="1580" width="120" height="60" as="geometry" />
        </mxCell>
        <mxCell id="jpYt6es3VZ6jKKZ6gmWX-142" value="項目" style="rounded=1;whiteSpace=wrap;html=1;" vertex="1" parent="1">
          <mxGeometry x="910" y="1940" width="120" height="60" as="geometry" />
        </mxCell>
        <mxCell id="jpYt6es3VZ6jKKZ6gmWX-145" value="" style="line;strokeWidth=4;direction=south;html=1;perimeter=backbonePerimeter;points=[];outlineConnect=0;" vertex="1" parent="1">
          <mxGeometry x="810" y="1131" width="10" height="839" as="geometry" />
        </mxCell>
        <mxCell id="jpYt6es3VZ6jKKZ6gmWX-146" value="" style="line;strokeWidth=4;html=1;perimeter=backbonePerimeter;points=[];outlineConnect=0;direction=east;" vertex="1" parent="1">
          <mxGeometry x="1030" y="1128.5" width="100" height="10" as="geometry" />
        </mxCell>
        <mxCell id="jpYt6es3VZ6jKKZ6gmWX-147" value="" style="line;strokeWidth=4;html=1;perimeter=backbonePerimeter;points=[];outlineConnect=0;" vertex="1" parent="1">
          <mxGeometry x="1130" y="987.5" width="100" height="10" as="geometry" />
        </mxCell>
        <mxCell id="jpYt6es3VZ6jKKZ6gmWX-148" value="" style="line;strokeWidth=4;html=1;perimeter=backbonePerimeter;points=[];outlineConnect=0;" vertex="1" parent="1">
          <mxGeometry x="1130" y="1267.5" width="100" height="10" as="geometry" />
        </mxCell>
        <mxCell id="jpYt6es3VZ6jKKZ6gmWX-149" value="" style="line;strokeWidth=4;html=1;perimeter=backbonePerimeter;points=[];outlineConnect=0;" vertex="1" parent="1">
          <mxGeometry x="1130" y="1062.5" width="100" height="10" as="geometry" />
        </mxCell>
        <mxCell id="jpYt6es3VZ6jKKZ6gmWX-150" value="" style="line;strokeWidth=4;html=1;perimeter=backbonePerimeter;points=[];outlineConnect=0;" vertex="1" parent="1">
          <mxGeometry x="1130" y="1127.5" width="100" height="10" as="geometry" />
        </mxCell>
        <mxCell id="jpYt6es3VZ6jKKZ6gmWX-151" value="" style="line;strokeWidth=4;html=1;perimeter=backbonePerimeter;points=[];outlineConnect=0;" vertex="1" parent="1">
          <mxGeometry x="1130" y="1202.5" width="100" height="10" as="geometry" />
        </mxCell>
        <mxCell id="jpYt6es3VZ6jKKZ6gmWX-152" value="步數" style="rounded=1;whiteSpace=wrap;html=1;" vertex="1" parent="1">
          <mxGeometry x="1230" y="962.5" width="120" height="60" as="geometry" />
        </mxCell>
        <mxCell id="jpYt6es3VZ6jKKZ6gmWX-153" value="體重" style="rounded=1;whiteSpace=wrap;html=1;" vertex="1" parent="1">
          <mxGeometry x="1230" y="1032.5" width="120" height="60" as="geometry" />
        </mxCell>
        <mxCell id="jpYt6es3VZ6jKKZ6gmWX-154" value="頸圍" style="rounded=1;whiteSpace=wrap;html=1;" vertex="1" parent="1">
          <mxGeometry x="1230" y="1102.5" width="120" height="60" as="geometry" />
        </mxCell>
        <mxCell id="jpYt6es3VZ6jKKZ6gmWX-155" value="腰圍" style="rounded=1;whiteSpace=wrap;html=1;" vertex="1" parent="1">
          <mxGeometry x="1230" y="1173.5" width="120" height="60" as="geometry" />
        </mxCell>
        <mxCell id="jpYt6es3VZ6jKKZ6gmWX-156" value="臀圍" style="rounded=1;whiteSpace=wrap;html=1;" vertex="1" parent="1">
          <mxGeometry x="1230" y="1247.5" width="120" height="60" as="geometry" />
        </mxCell>
        <mxCell id="jpYt6es3VZ6jKKZ6gmWX-157" value="" style="line;strokeWidth=4;direction=south;html=1;perimeter=backbonePerimeter;points=[];outlineConnect=0;" vertex="1" parent="1">
          <mxGeometry x="1130" y="988.5" width="10" height="289" as="geometry" />
        </mxCell>
        <mxCell id="jpYt6es3VZ6jKKZ6gmWX-158" value="" style="line;strokeWidth=4;html=1;perimeter=backbonePerimeter;points=[];outlineConnect=0;" vertex="1" parent="1">
          <mxGeometry x="1034" y="1606" width="100" height="10" as="geometry" />
        </mxCell>
        <mxCell id="jpYt6es3VZ6jKKZ6gmWX-159" value="" style="line;strokeWidth=4;html=1;perimeter=backbonePerimeter;points=[];outlineConnect=0;" vertex="1" parent="1">
          <mxGeometry x="1130" y="1360" width="100" height="10" as="geometry" />
        </mxCell>
        <mxCell id="jpYt6es3VZ6jKKZ6gmWX-160" value="" style="line;strokeWidth=4;html=1;perimeter=backbonePerimeter;points=[];outlineConnect=0;" vertex="1" parent="1">
          <mxGeometry x="1130" y="1640" width="100" height="10" as="geometry" />
        </mxCell>
        <mxCell id="jpYt6es3VZ6jKKZ6gmWX-161" value="" style="line;strokeWidth=4;html=1;perimeter=backbonePerimeter;points=[];outlineConnect=0;" vertex="1" parent="1">
          <mxGeometry x="1130" y="1705" width="100" height="10" as="geometry" />
        </mxCell>
        <mxCell id="jpYt6es3VZ6jKKZ6gmWX-162" value="" style="line;strokeWidth=4;html=1;perimeter=backbonePerimeter;points=[];outlineConnect=0;" vertex="1" parent="1">
          <mxGeometry x="1130" y="1435" width="100" height="10" as="geometry" />
        </mxCell>
        <mxCell id="jpYt6es3VZ6jKKZ6gmWX-163" value="" style="line;strokeWidth=4;html=1;perimeter=backbonePerimeter;points=[];outlineConnect=0;" vertex="1" parent="1">
          <mxGeometry x="1130" y="1500" width="100" height="10" as="geometry" />
        </mxCell>
        <mxCell id="jpYt6es3VZ6jKKZ6gmWX-164" value="" style="line;strokeWidth=4;html=1;perimeter=backbonePerimeter;points=[];outlineConnect=0;" vertex="1" parent="1">
          <mxGeometry x="1130" y="1575" width="100" height="10" as="geometry" />
        </mxCell>
        <mxCell id="jpYt6es3VZ6jKKZ6gmWX-165" value="一個月" style="rounded=1;whiteSpace=wrap;html=1;" vertex="1" parent="1">
          <mxGeometry x="1230" y="1405" width="120" height="60" as="geometry" />
        </mxCell>
        <mxCell id="jpYt6es3VZ6jKKZ6gmWX-166" value="兩個月" style="rounded=1;whiteSpace=wrap;html=1;" vertex="1" parent="1">
          <mxGeometry x="1230" y="1475" width="120" height="60" as="geometry" />
        </mxCell>
        <mxCell id="jpYt6es3VZ6jKKZ6gmWX-167" value="三個月" style="rounded=1;whiteSpace=wrap;html=1;" vertex="1" parent="1">
          <mxGeometry x="1230" y="1546" width="120" height="60" as="geometry" />
        </mxCell>
        <mxCell id="jpYt6es3VZ6jKKZ6gmWX-168" value="六個月" style="rounded=1;whiteSpace=wrap;html=1;" vertex="1" parent="1">
          <mxGeometry x="1230" y="1615" width="120" height="60" as="geometry" />
        </mxCell>
        <mxCell id="jpYt6es3VZ6jKKZ6gmWX-169" value="一年" style="rounded=1;whiteSpace=wrap;html=1;" vertex="1" parent="1">
          <mxGeometry x="1230" y="1685" width="120" height="60" as="geometry" />
        </mxCell>
        <mxCell id="jpYt6es3VZ6jKKZ6gmWX-170" value="" style="line;strokeWidth=4;html=1;perimeter=backbonePerimeter;points=[];outlineConnect=0;" vertex="1" parent="1">
          <mxGeometry x="1130" y="1776" width="100" height="10" as="geometry" />
        </mxCell>
        <mxCell id="jpYt6es3VZ6jKKZ6gmWX-171" value="自起始開始" style="rounded=1;whiteSpace=wrap;html=1;" vertex="1" parent="1">
          <mxGeometry x="1230" y="1756" width="120" height="60" as="geometry" />
        </mxCell>
        <mxCell id="jpYt6es3VZ6jKKZ6gmWX-172" value="" style="line;strokeWidth=4;html=1;perimeter=backbonePerimeter;points=[];outlineConnect=0;" vertex="1" parent="1">
          <mxGeometry x="1130" y="1849" width="100" height="10" as="geometry" />
        </mxCell>
        <mxCell id="jpYt6es3VZ6jKKZ6gmWX-173" value="全部" style="rounded=1;whiteSpace=wrap;html=1;" vertex="1" parent="1">
          <mxGeometry x="1230" y="1829" width="120" height="60" as="geometry" />
        </mxCell>
        <mxCell id="jpYt6es3VZ6jKKZ6gmWX-174" value="一週" style="rounded=1;whiteSpace=wrap;html=1;" vertex="1" parent="1">
          <mxGeometry x="1230" y="1335" width="120" height="60" as="geometry" />
        </mxCell>
        <mxCell id="jpYt6es3VZ6jKKZ6gmWX-175" value="" style="line;strokeWidth=4;direction=south;html=1;perimeter=backbonePerimeter;points=[];outlineConnect=0;" vertex="1" parent="1">
          <mxGeometry x="1130" y="1360" width="10" height="500" as="geometry" />
        </mxCell>
        <mxCell id="jpYt6es3VZ6jKKZ6gmWX-177" value="" style="line;strokeWidth=4;html=1;perimeter=backbonePerimeter;points=[];outlineConnect=0;" vertex="1" parent="1">
          <mxGeometry x="1030" y="1959.5" width="100" height="10" as="geometry" />
        </mxCell>
        <mxCell id="jpYt6es3VZ6jKKZ6gmWX-179" value="加入體重" style="rounded=1;whiteSpace=wrap;html=1;" vertex="1" parent="1">
          <mxGeometry x="1130" y="1939.5" width="120" height="60" as="geometry" />
        </mxCell>
        <mxCell id="jpYt6es3VZ6jKKZ6gmWX-182" value="" style="line;strokeWidth=4;html=1;perimeter=backbonePerimeter;points=[];outlineConnect=0;" vertex="1" parent="1">
          <mxGeometry x="1350" y="1964.5" width="100" height="10" as="geometry" />
        </mxCell>
        <mxCell id="jpYt6es3VZ6jKKZ6gmWX-183" value="" style="line;strokeWidth=4;html=1;perimeter=backbonePerimeter;points=[];outlineConnect=0;" vertex="1" parent="1">
          <mxGeometry x="1250" y="1964.5" width="100" height="10" as="geometry" />
        </mxCell>
        <mxCell id="jpYt6es3VZ6jKKZ6gmWX-184" value="" style="line;strokeWidth=4;html=1;perimeter=backbonePerimeter;points=[];outlineConnect=0;" vertex="1" parent="1">
          <mxGeometry x="1350" y="1904.5" width="100" height="10" as="geometry" />
        </mxCell>
        <mxCell id="jpYt6es3VZ6jKKZ6gmWX-185" value="" style="line;strokeWidth=4;direction=south;html=1;perimeter=backbonePerimeter;points=[];outlineConnect=0;" vertex="1" parent="1">
          <mxGeometry x="1344" y="1906.5" width="10" height="136" as="geometry" />
        </mxCell>
        <mxCell id="jpYt6es3VZ6jKKZ6gmWX-186" value="日期" style="rounded=1;whiteSpace=wrap;html=1;" vertex="1" parent="1">
          <mxGeometry x="1450" y="1942.5" width="120" height="60" as="geometry" />
        </mxCell>
        <mxCell id="jpYt6es3VZ6jKKZ6gmWX-187" value="新增體重" style="rounded=1;whiteSpace=wrap;html=1;" vertex="1" parent="1">
          <mxGeometry x="1450" y="1869.5" width="120" height="60" as="geometry" />
        </mxCell>
        <mxCell id="jpYt6es3VZ6jKKZ6gmWX-188" value="" style="line;strokeWidth=4;html=1;perimeter=backbonePerimeter;points=[];outlineConnect=0;" vertex="1" parent="1">
          <mxGeometry x="1350" y="2032.5" width="100" height="10" as="geometry" />
        </mxCell>
        <mxCell id="jpYt6es3VZ6jKKZ6gmWX-189" value="照片" style="rounded=1;whiteSpace=wrap;html=1;" vertex="1" parent="1">
          <mxGeometry x="1450" y="2010.5" width="120" height="60" as="geometry" />
        </mxCell>
      </root>
    </mxGraphModel>
  </diagram>
</mxfile>
